<mxfile host="app.diagrams.net" modified="2023-07-02T02:52:31.760Z" agent="Mozilla/5.0 (Windows NT 10.0; Win64; x64) AppleWebKit/537.36 (KHTML, like Gecko) Chrome/114.0.0.0 Safari/537.36" etag="3haxK57_6G47pO6pZXPG" version="21.5.2" type="device">
  <diagram id="C5RBs43oDa-KdzZeNtuy" name="Page-1">
    <mxGraphModel dx="832" dy="826" grid="1" gridSize="10" guides="1" tooltips="1" connect="1" arrows="1" fold="1" page="1" pageScale="1" pageWidth="827" pageHeight="1169" background="#FFCE9F" math="0" shadow="0">
      <root>
        <mxCell id="WIyWlLk6GJQsqaUBKTNV-0" />
        <mxCell id="WIyWlLk6GJQsqaUBKTNV-1" parent="WIyWlLk6GJQsqaUBKTNV-0" />
        <mxCell id="Jvdnv_xj234nNSe339qQ-26" value="&lt;p style=&quot;margin:0px;margin-top:4px;text-align:center;&quot;&gt;&lt;i&gt;&amp;lt;&amp;lt;Interface&amp;gt;&amp;gt;&lt;/i&gt;&lt;br&gt;Aparelho TelefÃ´nico&lt;/p&gt;&lt;hr size=&quot;1&quot;&gt;&lt;p style=&quot;margin:0px;margin-left:4px;&quot;&gt;+&amp;nbsp;ligar(): void&lt;br&gt;+&amp;nbsp;atender(): void&lt;/p&gt;&amp;nbsp;+ iniciarCorrerioVoz(): void&lt;p style=&quot;margin:0px;margin-left:4px;&quot;&gt;&lt;br&gt;&lt;/p&gt;" style="verticalAlign=top;align=left;overflow=fill;fontSize=12;fontFamily=Helvetica;html=1;whiteSpace=wrap;" parent="WIyWlLk6GJQsqaUBKTNV-1" vertex="1">
          <mxGeometry x="20" y="117" width="190" height="103" as="geometry" />
        </mxCell>
        <mxCell id="Jvdnv_xj234nNSe339qQ-31" value="&lt;p style=&quot;margin:0px;margin-top:4px;text-align:center;&quot;&gt;&lt;i&gt;&amp;lt;&amp;lt;Interface&amp;gt;&amp;gt;&lt;/i&gt;&lt;br&gt;Repodutor Musical&lt;/p&gt;&lt;hr size=&quot;1&quot;&gt;&lt;p style=&quot;margin:0px;margin-left:4px;&quot;&gt;+&amp;nbsp;tocar(): void&lt;br&gt;+&amp;nbsp;pausar(): void&lt;/p&gt;&amp;nbsp;+&amp;nbsp;selecionarMusica(): void&lt;p style=&quot;margin:0px;margin-left:4px;&quot;&gt;&lt;br&gt;&lt;/p&gt;" style="verticalAlign=top;align=left;overflow=fill;fontSize=12;fontFamily=Helvetica;html=1;whiteSpace=wrap;" parent="WIyWlLk6GJQsqaUBKTNV-1" vertex="1">
          <mxGeometry x="240" y="117" width="190" height="103" as="geometry" />
        </mxCell>
        <mxCell id="Jvdnv_xj234nNSe339qQ-32" value="&lt;p style=&quot;margin:0px;margin-top:4px;text-align:center;&quot;&gt;&lt;i&gt;&amp;lt;&amp;lt;Interface&amp;gt;&amp;gt;&lt;/i&gt;&lt;br&gt;Navegador na Internet&lt;/p&gt;&lt;hr size=&quot;1&quot;&gt;&lt;p style=&quot;margin:0px;margin-left:4px;&quot;&gt;+&amp;nbsp;exibirPagina(): void&lt;br&gt;+&amp;nbsp;adicionarNovaAba(): void&lt;/p&gt;&amp;nbsp;+&amp;nbsp;atualizarPagina(): void&lt;p style=&quot;margin:0px;margin-left:4px;&quot;&gt;&lt;br&gt;&lt;/p&gt;" style="verticalAlign=top;align=left;overflow=fill;fontSize=12;fontFamily=Helvetica;html=1;whiteSpace=wrap;" parent="WIyWlLk6GJQsqaUBKTNV-1" vertex="1">
          <mxGeometry x="470" y="117" width="190" height="103" as="geometry" />
        </mxCell>
        <mxCell id="Jvdnv_xj234nNSe339qQ-45" style="edgeStyle=orthogonalEdgeStyle;rounded=0;orthogonalLoop=1;jettySize=auto;html=1;strokeColor=#080808;" parent="WIyWlLk6GJQsqaUBKTNV-1" source="Jvdnv_xj234nNSe339qQ-39" target="Jvdnv_xj234nNSe339qQ-26" edge="1">
          <mxGeometry relative="1" as="geometry" />
        </mxCell>
        <mxCell id="Jvdnv_xj234nNSe339qQ-46" style="edgeStyle=orthogonalEdgeStyle;rounded=0;orthogonalLoop=1;jettySize=auto;html=1;strokeColor=#080808;" parent="WIyWlLk6GJQsqaUBKTNV-1" source="Jvdnv_xj234nNSe339qQ-39" target="Jvdnv_xj234nNSe339qQ-31" edge="1">
          <mxGeometry relative="1" as="geometry" />
        </mxCell>
        <mxCell id="Jvdnv_xj234nNSe339qQ-39" value="Iphone" style="swimlane;fontStyle=1;align=center;verticalAlign=top;childLayout=stackLayout;horizontal=1;startSize=26;horizontalStack=0;resizeParent=1;resizeParentMax=0;resizeLast=0;collapsible=1;marginBottom=0;whiteSpace=wrap;html=1;" parent="WIyWlLk6GJQsqaUBKTNV-1" vertex="1">
          <mxGeometry x="254" y="300" width="160" height="230" as="geometry">
            <mxRectangle x="254" y="300" width="80" height="30" as="alternateBounds" />
          </mxGeometry>
        </mxCell>
        <mxCell id="Jvdnv_xj234nNSe339qQ-41" value="" style="line;strokeWidth=1;fillColor=default;align=left;verticalAlign=middle;spacingTop=-1;spacingLeft=3;spacingRight=3;rotatable=0;labelPosition=right;points=[];portConstraint=eastwest;strokeColor=inherit;" parent="Jvdnv_xj234nNSe339qQ-39" vertex="1">
          <mxGeometry y="26" width="160" height="8" as="geometry" />
        </mxCell>
        <mxCell id="Jvdnv_xj234nNSe339qQ-42" value="+ ligar(): void&lt;br&gt;+ atender(): void&lt;br&gt;+ iniciarCorreioVoz(): void&lt;br&gt;&lt;span style=&quot;background-color: initial;&quot;&gt;+&amp;nbsp;tocar(): void&lt;br&gt;&lt;/span&gt;&lt;span style=&quot;background-color: initial;&quot;&gt;+&amp;nbsp;pausar(): void&lt;/span&gt;&lt;br&gt;+&amp;nbsp;selecionarMusica(): void&lt;br&gt;&lt;span style=&quot;background-color: initial;&quot;&gt;+&amp;nbsp;exibirPagina(): void&lt;br&gt;&lt;/span&gt;&lt;span style=&quot;background-color: initial;&quot;&gt;+&amp;nbsp;adicionarNovaAba(): void&lt;/span&gt;&lt;span style=&quot;background-color: initial;&quot;&gt;&lt;br&gt;&lt;/span&gt;+&amp;nbsp;atualizarPagina(): void&lt;br&gt;+ ligarIphone(): void&lt;br&gt;+ desligarIphone(): void&lt;br&gt;+ bloquearIphone(): void&lt;br&gt;+ desbloquearIphone(): void" style="text;align=left;verticalAlign=top;spacingLeft=4;spacingRight=4;overflow=hidden;rotatable=0;points=[[0,0.5],[1,0.5]];portConstraint=eastwest;whiteSpace=wrap;html=1;fillColor=default;" parent="Jvdnv_xj234nNSe339qQ-39" vertex="1">
          <mxGeometry y="34" width="160" height="196" as="geometry" />
        </mxCell>
        <mxCell id="Jvdnv_xj234nNSe339qQ-48" style="edgeStyle=orthogonalEdgeStyle;rounded=0;orthogonalLoop=1;jettySize=auto;html=1;entryX=0.5;entryY=1;entryDx=0;entryDy=0;exitX=1.003;exitY=0.368;exitDx=0;exitDy=0;exitPerimeter=0;strokeColor=#050505;" parent="WIyWlLk6GJQsqaUBKTNV-1" source="Jvdnv_xj234nNSe339qQ-42" target="Jvdnv_xj234nNSe339qQ-32" edge="1">
          <mxGeometry relative="1" as="geometry" />
        </mxCell>
      </root>
    </mxGraphModel>
  </diagram>
</mxfile>
